<svg id="Layer_1" data-name="Layer 1" xmlns="http://www.w3.org/2000/svg" xmlns:xlink="http://www.w3.org/1999/xlink" viewBox="0 0 1920 1080"><defs><style>.cls-1{fill:url(#linear-gradient);}.cls-2{fill:url(#linear-gradient-2);}.cls-3{fill:url(#linear-gradient-3);}.cls-4{fill:url(#linear-gradient-4);}.cls-5{fill:url(#linear-gradient-5);}.cls-13,.cls-14,.cls-6,.cls-7,.cls-8,.cls-9{fill:none;stroke-miterlimit:10;}.cls-6,.cls-9{stroke-width:8px;}.cls-6{stroke:url(#linear-gradient-6);}.cls-7,.cls-8{stroke-width:11px;}.cls-7{stroke:url(#linear-gradient-7);}.cls-8{stroke:url(#linear-gradient-8);}.cls-9{stroke:url(#linear-gradient-9);}.cls-10{fill:url(#linear-gradient-10);}.cls-11{fill:url(#linear-gradient-11);}.cls-12{fill:url(#linear-gradient-12);}.cls-13{stroke-width:40px;stroke:url(#linear-gradient-13);}.cls-14{stroke-width:30px;stroke:url(#linear-gradient-14);}</style><linearGradient id="linear-gradient" x1="-104.2" y1="1232.72" x2="1782.86" y2="842.44" gradientUnits="userSpaceOnUse"><stop offset="0" stop-color="#a2ffd7"/><stop offset="1" stop-color="#45ceff"/></linearGradient><linearGradient id="linear-gradient-2" x1="-168.25" y1="478.29" x2="232.52" y2="183.85" gradientUnits="userSpaceOnUse"><stop offset="0" stop-color="#8bbaff"/><stop offset="0.34" stop-color="#88a7f5"/><stop offset="1" stop-color="#7f77dc"/></linearGradient><linearGradient id="linear-gradient-3" x1="665.5" y1="114.25" x2="994.5" y2="114.25" gradientUnits="userSpaceOnUse"><stop offset="0" stop-color="#a2ffd7"/><stop offset="0.99" stop-color="#faffd1"/></linearGradient><linearGradient id="linear-gradient-4" x1="1781.41" y1="628.12" x2="2015.77" y2="807.4" gradientUnits="userSpaceOnUse"><stop offset="0" stop-color="#fff95c"/><stop offset="1" stop-color="#7bd000"/></linearGradient><linearGradient id="linear-gradient-5" x1="1660.5" y1="176" x2="1919.5" y2="176" gradientUnits="userSpaceOnUse"><stop offset="0" stop-color="#ffafbd"/><stop offset="1" stop-color="#ffc3a0"/></linearGradient><linearGradient id="linear-gradient-6" x1="2.36" y1="589.5" x2="419.64" y2="589.5" xlink:href="#linear-gradient-2"/><linearGradient id="linear-gradient-7" x1="1.01" y1="720.29" x2="312.49" y2="720.29" xlink:href="#linear-gradient-3"/><linearGradient id="linear-gradient-8" x1="180.54" y1="669" x2="547.46" y2="669" xlink:href="#linear-gradient-5"/><linearGradient id="linear-gradient-9" x1="751.41" y1="582.25" x2="1027.68" y2="582.25" xlink:href="#linear-gradient-2"/><linearGradient id="linear-gradient-10" x1="1350.68" y1="263.36" x2="1528.23" y2="132.91" gradientTransform="translate(163.61 -448.46) rotate(19.6)" xlink:href="#linear-gradient-2"/><linearGradient id="linear-gradient-11" x1="1227.06" y1="870" x2="1404.61" y2="739.56" gradientTransform="translate(163.61 -448.46) rotate(19.6)" xlink:href="#linear-gradient-2"/><linearGradient id="linear-gradient-12" x1="1506.59" y1="671.77" x2="1655.76" y2="671.77" gradientTransform="matrix(0.82, 0.24, -0.28, 0.96, 519.33, -352.35)" xlink:href="#linear-gradient-3"/><linearGradient id="linear-gradient-13" x1="373.5" y1="259.25" x2="504" y2="259.25" xlink:href="#linear-gradient-3"/><linearGradient id="linear-gradient-14" x1="1327.2" y1="543.6" x2="1449.3" y2="453.9" xlink:href="#linear-gradient-2"/></defs><title>todo ui</title><path class="cls-1" d="M0,1079C127.63,901.58,376.77,847.57,581.21,851.84c143.73,3,277.48,50.62,416.63,82.29,111.09,25.29,224.05,44.34,338,49.2,110.8,4.73,220.16-16,328.81-34.79,17-2.95,251.48-43.4,254.32-31.54,0,0,.07,125.51,0,163H570.66c-194.88,0-375.77-1-570.66-1" transform="translate(0)"/><path class="cls-2" d="M211.5,305A145.55,145.55,0,0,1,0,434.7V175.3A145.55,145.55,0,0,1,211.5,305Z" transform="translate(0)"/><path class="cls-3" d="M994.5,64A164.5,164.5,0,1,1,678.42,0H981.58A163.91,163.91,0,0,1,994.5,64Z" transform="translate(0)"/><path class="cls-4" d="M1920,625.51v192h-.5a96,96,0,0,1,0-192Z" transform="translate(0)"/><circle class="cls-5" cx="1790" cy="176" r="129.5"/><line class="cls-6" x1="4.5" y1="720.5" x2="417.5" y2="458.5"/><line class="cls-7" x1="309.5" y1="621.5" x2="4" y2="819.08"/><line class="cls-8" x1="183.5" y1="784.5" x2="544.5" y2="553.5"/><line class="cls-9" x1="1025.59" y1="499" x2="753.5" y2="665.5"/><polygon class="cls-10" points="1484.51 267.31 1400.82 181.3 1522.25 161.33 1484.51 267.31"/><polygon class="cls-11" points="1164.51 797.3 1080.82 711.3 1202.25 691.33 1164.51 797.3"/><polygon class="cls-12" points="1552.56 704.86 1680.24 721.89 1623.5 608.28 1552.56 704.86"/><circle class="cls-13" cx="438.75" cy="259.25" r="45.25"/><circle class="cls-14" cx="1388.25" cy="498.75" r="60.75"/></svg>